<svg width="52.000000" height="52.000000" viewBox="0 0 52 52" fill="none" xmlns="http://www.w3.org/2000/svg" xmlns:xlink="http://www.w3.org/1999/xlink">
	<desc>
			Created with Pixso.
	</desc>
	<defs>
		<clipPath id="clip784_2880">
			<rect id="icn_m_github" width="32.000000" height="32.000000" transform="translate(10.000000 10.000000)" fill="white" fill-opacity="0"/>
		</clipPath>
	</defs>
	<rect id="State=default" rx="26.000000" width="52.000000" height="52.000000" fill="#FFFFFF" fill-opacity="1.000000"/>
	<rect id="icn_m_github" width="32.000000" height="32.000000" transform="translate(10.000000 10.000000)" fill="#FFFFFF" fill-opacity="0"/>
	<g clip-path="url(#clip784_2880)">
		<path id="Union" d="M12.667 26C12.667 18.5 18.5 12.6665 26 12.6665C33.5 12.6665 39.334 18.5 39.334 26C39.334 34.75 31.417 38.5 30.167 38.5C29.334 38.5 29.334 38.083 29.334 37.6665L29.334 34.333C29.334 33.083 28.917 32.25 28.5 31.833C31.417 31.4165 34.334 30.1665 34.334 25.583Q34.334 23.083 33.084 21.833C33.084 21.833 33.917 21 33.084 18.083C33.084 18.083 31 18.083 29.334 19.75C28.084 18.9165 23.917 18.9165 22.667 19.75C21 18.083 18.917 18.083 18.917 18.083C18.084 20.1665 18.917 21.833 18.917 21.833Q17.667 23.083 17.667 25.583C17.667 30.1665 20.167 31.4165 23.5 31.833C23.5 31.833 22.667 32.6665 22.667 33.5C21.834 33.9165 20.167 34.333 18.917 32.6665C18.917 32.6665 18.084 31 16.834 31C15.5605 31 16.2324 31.4863 16.8066 31.9014C16.9844 32.0298 17.1523 32.1514 17.25 32.25C18.084 33.083 18.084 33.5 18.084 33.5C18.5 34.75 19.75 36.4165 22.667 35.583L22.667 37.6665C22.667 38.083 22.667 38.5 21.834 38.5C20.584 38.5 12.667 34.75 12.667 26Z" clip-rule="evenodd" fill="#000000" fill-opacity="1.000000" fill-rule="evenodd"/>
	</g>
</svg>
