<svg width="52.000000" height="52.000000" viewBox="0 0 52 52" fill="none" xmlns="http://www.w3.org/2000/svg" xmlns:xlink="http://www.w3.org/1999/xlink">
	<desc>
			Created with Pixso.
	</desc>
	<defs>
		<clipPath id="clip784_2875">
			<rect id="icn_m_google" width="32.000000" height="32.000000" transform="translate(10.000000 10.000000)" fill="white" fill-opacity="0"/>
		</clipPath>
	</defs>
	<rect id="State=default" rx="26.000000" width="52.000000" height="52.000000" fill="#FFFFFF" fill-opacity="1.000000"/>
	<rect id="icn_m_google" width="32.000000" height="32.000000" transform="translate(10.000000 10.000000)" fill="#FFFFFF" fill-opacity="0"/>
	<g clip-path="url(#clip784_2875)">
		<path id="Vector" d="M39.07 23.38L38 23.38L38 23.33L26 23.33L26 28.66L33.53 28.66C32.43 31.77 29.48 34 26 34C21.58 34 18 30.41 18 26C18 21.58 21.58 18 26 18C28.04 18 29.89 18.76 31.3 20.02L35.07 16.25C32.69 14.03 29.51 12.66 26 12.66C18.63 12.66 12.66 18.63 12.66 26C12.66 33.36 18.63 39.33 26 39.33C33.36 39.33 39.33 33.36 39.33 26C39.33 25.1 39.24 24.23 39.07 23.38Z" fill="#FFC107" fill-opacity="1.000000" fill-rule="nonzero"/>
		<path id="Vector" d="M14.2 19.79L18.58 23C19.77 20.07 22.64 18 26 18C28.03 18 29.89 18.76 31.3 20.02L35.07 16.25C32.69 14.03 29.51 12.66 26 12.66C20.87 12.66 16.43 15.55 14.2 19.79Z" fill="#FF3D00" fill-opacity="1.000000" fill-rule="nonzero"/>
		<path id="Vector" d="M26 39.33C29.44 39.33 32.57 38.01 34.93 35.87L30.81 32.37C29.42 33.43 27.73 34 26 34C22.53 34 19.58 31.78 18.47 28.7L14.12 32.05C16.33 36.37 20.81 39.33 26 39.33Z" fill="#4CAF50" fill-opacity="1.000000" fill-rule="nonzero"/>
		<path id="Vector" d="M39.07 23.38L38 23.38L38 23.33L26 23.33L26 28.66L33.53 28.66C33 30.14 32.06 31.43 30.81 32.38L30.81 32.37L34.93 35.87C34.64 36.13 39.33 32.66 39.33 26C39.33 25.1 39.24 24.23 39.07 23.38Z" fill="#1976D2" fill-opacity="1.000000" fill-rule="nonzero"/>
	</g>
</svg>
