<svg width="24" height="24" viewBox="0 0 24 24" fill="none" xmlns="http://www.w3.org/2000/svg">
<path fill-rule="evenodd" clip-rule="evenodd" d="M7.69036 9H7.69026H7.30055C7.0516 9 6.91097 9.2857 7.06283 9.483L7.30055 9.79181L8.73222 11.6516L8.7872 11.723L9.92993 13.2075L10.54 14L10.9578 14.5427L10.958 14.5429L11.6495 15.4412C11.7696 15.5972 12.0048 15.5972 12.1249 15.4412L12.8164 14.5429L12.8165 14.5427L13.2343 14L13.8444 13.2074L14.9871 11.723L15.0421 11.6516L16.4738 9.79178L16.7115 9.483C16.8634 9.2857 16.7228 9 16.4738 9H16.0841H16.084H13.0009H12.0007H11.7736H10.7734H7.69036ZM7.06365 9.48237L7.30055 9.30003L7.06365 9.48237Z" fill="#0E0825"/>
</svg>
