<svg width="24" height="24" viewBox="0 0 24 24" fill="none" xmlns="http://www.w3.org/2000/svg">
<path d="M10.9827 8.68771C10.6937 8.93288 10.484 9.30663 10.484 9.859C10.484 10.2042 10.2042 10.484 9.85901 10.484C9.51383 10.484 9.23401 10.2042 9.23401 9.859C9.23401 8.9466 9.59974 8.22178 10.1739 7.73458C11.2718 6.80305 13.0497 6.80305 14.1476 7.73459C14.7218 8.22179 15.0875 8.94661 15.0875 9.859C15.0875 11.3544 13.8716 11.8185 13.2409 12.9328C13.1047 13.1734 12.995 13.5092 12.995 14.0439C12.995 14.3891 12.7152 14.6689 12.37 14.6689C12.0248 14.6689 11.745 14.3891 11.745 14.0439C11.745 13.3231 11.8969 12.7697 12.1531 12.3171C12.6441 11.4495 13.8375 10.959 13.8375 9.859C13.8375 9.30664 13.6278 8.93289 13.3389 8.68772C12.7018 8.14715 11.6198 8.14714 10.9827 8.68771Z" fill="black"/>
<path d="M12.8427 17.8094C13.0738 17.5529 13.0531 17.1577 12.7967 16.9267C12.5402 16.6957 12.145 16.7163 11.914 16.9727C11.683 17.2292 11.6913 17.6301 11.9517 17.8647C12.2121 18.0993 12.6117 18.0658 12.8427 17.8094Z" fill="black"/>
<path fill-rule="evenodd" clip-rule="evenodd" d="M3.375 12.37C3.375 7.4022 7.4022 3.375 12.37 3.375C17.3378 3.375 21.365 7.40219 21.365 12.37C21.365 17.3378 17.3378 21.365 12.37 21.365C7.40219 21.365 3.375 17.3378 3.375 12.37ZM12.37 4.625C8.09255 4.625 4.625 8.09255 4.625 12.37C4.625 16.6474 8.09255 20.115 12.37 20.115C16.6474 20.115 20.115 16.6474 20.115 12.37C20.115 8.09255 16.6474 4.625 12.37 4.625Z" fill="black"/>
</svg>
