<svg width="24" height="24" viewBox="0 0 24 24" fill="none" xmlns="http://www.w3.org/2000/svg">
<path fill-rule="evenodd" clip-rule="evenodd" d="M10.4614 4.03649C10.3819 4.33878 10.3541 5.10315 10.0153 5.246L8.65367 5.81999C8.35699 5.94506 8.06353 5.53688 7.87296 5.36738C7.32906 4.88359 6.50231 4.90776 5.9876 5.4225L5.39945 6.01067C4.90141 6.50873 4.86045 7.30268 5.30458 7.84936C5.47088 8.05405 5.90849 8.39765 5.78492 8.70149L5.22418 10.0802C5.08903 10.4125 4.36741 10.4178 4.07564 10.4859C2.66504 10.8151 2.63496 13.1453 4.02604 13.5251C4.33025 13.6082 5.10226 13.6434 5.24579 13.9839L5.8212 15.349C5.94601 15.6451 5.54009 15.9363 5.37072 16.1263C4.88594 16.6702 4.90967 17.4978 5.42481 18.0129L6.0115 18.5997C6.5101 19.0983 7.30511 19.1387 7.85171 18.6932C8.05646 18.5264 8.4007 18.0866 8.70516 18.2119L10.0495 18.765C10.3863 18.9035 10.4057 19.6509 10.4808 19.9485C10.8348 21.3501 13.1656 21.3506 13.5204 19.9494C13.5959 19.6516 13.6158 18.9042 13.952 18.7649L15.3682 18.1784C15.6436 18.0644 15.95 18.48 16.1278 18.6348C16.6728 19.1091 17.4984 19.0908 18.0158 18.5734L18.5901 17.999C19.0959 17.4932 19.1292 16.6839 18.6666 16.1382C18.4987 15.9401 18.0732 15.6197 18.1978 15.3189L18.7679 13.9421C18.9076 13.6048 19.66 13.5798 19.959 13.502C21.3504 13.14 21.346 10.8334 19.9517 10.4788C19.6549 10.4033 18.9128 10.383 18.774 10.0479L18.2049 8.67372C18.081 8.37451 18.5015 8.05693 18.6685 7.85938C19.1299 7.31363 19.0962 6.50531 18.5908 5.99994L18.0023 5.41141C17.495 4.90409 16.6829 4.8723 16.1375 5.33841C15.9415 5.5059 15.6292 5.92377 15.3306 5.80097L13.9086 5.21614C13.573 5.0781 13.5467 4.33415 13.4686 4.03709C13.1055 2.65458 10.8252 2.65422 10.4614 4.03649ZM11.4839 4.30559C11.5754 3.9579 12.3547 3.95796 12.4461 4.30572C12.6345 5.0232 12.7283 5.87399 13.5065 6.19402L14.9285 6.77884C15.7053 7.09833 16.2737 6.61281 16.8244 6.14221C17.1669 5.84952 18.202 6.7736 17.8611 7.17669C17.3929 7.73055 16.9062 8.30105 17.2281 9.07827L17.7972 10.4525C18.12 11.2321 18.9711 11.3204 19.6911 11.5035C20.0429 11.593 20.0435 12.3875 19.6928 12.4787C18.9723 12.6662 18.1143 12.7571 17.7911 13.5375L17.2209 14.9144C16.8976 15.695 17.3895 16.2668 17.8602 16.822C18.1543 17.1689 17.2291 18.1916 16.822 17.8372C16.2842 17.3692 15.7277 16.8851 14.9637 17.2015L13.5475 17.7881C12.7655 18.1119 12.6784 18.9676 12.4955 19.6898C12.4058 20.0441 11.5954 20.0441 11.5059 19.6896C11.3233 18.9663 11.2362 18.1098 10.4518 17.7871L9.10741 17.234C8.32494 16.9121 7.7493 17.4127 7.18378 17.8736C6.83828 18.1552 5.80506 17.228 6.15994 16.8299C6.64352 16.2874 7.12336 15.7161 6.79546 14.9383L6.22006 13.5732C5.8931 12.7975 5.02296 12.7012 4.30449 12.5051C3.95382 12.4094 3.95801 11.5991 4.31594 11.5155C5.04141 11.3462 5.88303 11.2666 6.20356 10.4785L6.76429 9.09985C7.08152 8.31989 6.58353 7.74681 6.12517 7.18263C5.84439 6.83702 6.77189 5.80305 7.1703 6.15743C7.71384 6.6409 8.2855 7.12263 9.06436 6.7943L10.426 6.22031C11.2037 5.89246 11.2942 5.02636 11.4839 4.30559ZM12.0005 8.93285C10.3071 8.93285 8.93437 10.3056 8.93437 11.9991C8.93437 13.6926 10.3071 15.0654 12.0005 15.0654C13.6939 15.0654 15.0666 13.6926 15.0666 11.9991C15.0666 10.3056 13.6939 8.93285 12.0005 8.93285ZM9.99166 11.9991C9.99166 10.8896 10.891 9.99019 12.0005 9.99019C13.11 9.99019 14.0094 10.8896 14.0094 11.9991C14.0094 13.1087 13.11 14.0081 12.0005 14.0081C10.891 14.0081 9.99166 13.1087 9.99166 11.9991Z" fill="black"/>
</svg>
