<svg width="32" height="32" viewBox="0 0 32 32" fill="none" xmlns="http://www.w3.org/2000/svg">
<g clip-path="url(#clip0_1349_2824)">
<path d="M16 32C24.8366 32 32 24.8366 32 16C32 7.16344 24.8366 0 16 0C7.16344 0 0 7.16344 0 16C0 24.8366 7.16344 32 16 32Z" fill="#57AAE4"/>
<path fill-rule="evenodd" clip-rule="evenodd" d="M15.9999 6.875C13.7217 6.875 11.875 8.72183 11.875 11C11.875 13.2782 13.7217 15.125 15.9999 15.125C18.2781 15.125 20.1249 13.2782 20.1249 11C20.1249 8.72182 18.2781 6.875 15.9999 6.875ZM13.125 11C13.125 9.41217 14.4121 8.125 15.9999 8.125C17.5877 8.125 18.8749 9.41218 18.8749 11C18.8749 12.5878 17.5877 13.875 15.9999 13.875C14.4121 13.875 13.125 12.5878 13.125 11Z" fill="white"/>
<path fill-rule="evenodd" clip-rule="evenodd" d="M15.9999 16.875C12.2531 16.875 9.10004 19.4107 8.16027 22.8585C7.95304 23.6189 8.18521 24.331 8.64866 24.8344C9.1037 25.3287 9.77938 25.625 10.4999 25.625H21.4999C22.2205 25.625 22.8962 25.3287 23.3512 24.8344C23.8147 24.331 24.0469 23.6189 23.8396 22.8585C22.8999 19.4106 19.7468 16.875 15.9999 16.875ZM9.36628 23.1873C10.1616 20.2693 12.8311 18.125 15.9999 18.125C19.1688 18.125 21.8383 20.2694 22.6336 23.1872C22.7168 23.4926 22.633 23.769 22.4316 23.9878C22.2218 24.2156 21.8839 24.375 21.4999 24.375H10.4999C10.1159 24.375 9.77805 24.2156 9.56828 23.9878C9.36692 23.769 9.28305 23.4926 9.36628 23.1873Z" fill="white"/>
</g>
<defs>
<clipPath id="clip0_1349_2824">
<rect width="32" height="32" fill="white"/>
</clipPath>
</defs>
</svg>
